{
  "accessors": [
    {
      "bufferView": 2,
      "componentType": 5126,
      "count": 1412,
      "max": [
        10.02076530456543,
        10.069000244140625,
        10.606735229492188
      ],
      "min": [
        -11.486934661865234,
        -10.109999656677246,
        -10.070564270019531
      ],
      "type": "VEC3"
    },
    {
      "bufferView": 2,
      "byteOffset": 16944,
      "componentType": 5126,
      "count": 1412,
      "max": [
        0.9982616305351257,
        0.9988484978675842,
        0.9984604716300964
      ],
      "min": [
        -1.0,
        -0.9995170831680298,
        -1.0
      ],
      "type": "VEC3"
    },
    {
      "bufferView": 1,
      "componentType": 5126,
      "count": 1412,
      "max": [
        1.000599980354309,
        1.0
      ],
      "min": [
        0.0,
        -0.0010000000474974513
      ],
      "type": "VEC2"
    },
    {
      "bufferView": 0,
      "componentType": 5125,
      "count": 7980,
      "type": "SCALAR"
    }
  ],
  "asset": {
    "extras": {
      "author": "Hannes Delbeke (https://sketchfab.com/han)",
      "license": "CC-BY-4.0 (http://creativecommons.org/licenses/by/4.0/)",
      "source": "https://sketchfab.com/3d-models/fantasy-sky-background-15c79bb2fc1147128039fe4ff90fd5a0",
      "title": "Fantasy Sky Background"
    },
    "generator": "Sketchfab-12.68.0",
    "version": "2.0"
  },
  "bufferViews": [
    {
      "buffer": 0,
      "byteLength": 31920,
      "name": "floatBufferViews",
      "target": 34963
    },
    {
      "buffer": 0,
      "byteLength": 11296,
      "byteOffset": 31920,
      "byteStride": 8,
      "name": "floatBufferViews",
      "target": 34962
    },
    {
      "buffer": 0,
      "byteLength": 33888,
      "byteOffset": 43216,
      "byteStride": 12,
      "name": "floatBufferViews",
      "target": 34962
    }
  ],
  "buffers": [
    {
      "byteLength": 77104,
      "uri": "scene.bin"
    }
  ],
  "extensionsUsed": [
    "KHR_materials_unlit"
  ],
  "images": [
    {
      "uri": "textures/Material__25__background_JPG_002_emissive.jpeg"
    }
  ],
  "materials": [
    {
      "emissiveFactor": [
        1.0,
        1.0,
        1.0
      ],
      "emissiveTexture": {
        "index": 0
      },
      "extensions": {
        "KHR_materials_unlit": {}
      },
      "name": "Material__25__background_JPG_002",
      "pbrMetallicRoughness": {
        "baseColorFactor": [
          0.4704,
          0.4704,
          0.4704,
          1.0
        ],
        "metallicFactor": 0.0
      }
    }
  ],
  "meshes": [
    {
      "name": "Object001_Material__25__background_JPG_002_0",
      "primitives": [
        {
          "attributes": {
            "NORMAL": 1,
            "POSITION": 0,
            "TEXCOORD_0": 2
          },
          "indices": 3,
          "material": 0,
          "mode": 4
        }
      ]
    }
  ],
  "nodes": [
    {
      "children": [
        1
      ],
      "matrix": [
        1.547899603843689,
        0.0,
        0.0,
        0.0,
        0.0,
        3.437027559990844e-16,
        -1.547899603843689,
        0.0,
        0.0,
        1.547899603843689,
        3.437027559990844e-16,
        0.0,
        0.0,
        0.0,
        0.0,
        1.0
      ],
      "name": "Sketchfab_model"
    },
    {
      "children": [
        2
      ],
      "matrix": [
        1.0,
        0.0,
        0.0,
        0.0,
        0.0,
        0.0,
        1.0,
        0.0,
        0.0,
        -1.0,
        0.0,
        0.0,
        0.0,
        0.0,
        0.0,
        1.0
      ],
      "name": "fbcede31ae3d4f1e9381cb9d506319fa.fbx"
    },
    {
      "children": [
        3
      ],
      "name": "RootNode"
    },
    {
      "children": [
        4
      ],
      "matrix": [
        1.0,
        0.0,
        0.0,
        0.0,
        0.0,
        0.9999999999999867,
        1.6292068494972794e-07,
        0.0,
        0.0,
        -1.6292068494972794e-07,
        0.9999999999999867,
        0.0,
        0.0,
        0.0,
        0.0,
        1.0
      ],
      "name": "Object001"
    },
    {
      "mesh": 0,
      "name": "Object001_Material__25__background_JPG_002_0"
    }
  ],
  "samplers": [
    {
      "magFilter": 9729,
      "minFilter": 9987,
      "wrapS": 10497,
      "wrapT": 10497
    }
  ],
  "scene": 0,
  "scenes": [
    {
      "name": "Sketchfab_Scene",
      "nodes": [
        0
      ]
    }
  ],
  "textures": [
    {
      "sampler": 0,
      "source": 0
    }
  ]
}
